<?xml version="1.0" encoding="UTF-8"?>
<svg xmlns="http://www.w3.org/2000/svg" version="1.1" viewBox="0 0 1134.3 312.9">
  <defs>
    <style>
      .cls-1 {
        fill: #fff;
      }

      .cls-2 {
        fill: #f03;
      }
    </style>
  </defs>
  <!-- Generator: Adobe Illustrator 28.7.1, SVG Export Plug-In . SVG Version: 1.2.0 Build 142)  -->
  <g>
    <g id="Layer_1">
      <g>
        <g>
          <g>
            <path class="cls-1" d="M729,97.3h30.4l8.3,44.2c3.5,18.4,7.3,45.9,8.4,57.2h1.4c1.4-12.3,4.7-39,8.3-57.3l8.6-44.1h30.2v119.4h-17.7v-51.8c0-16.1,1.2-36.1,2.2-54.3h-1.6l-3,16.4-17.9,89.7h-19.6l-18-89.7-2.8-16.4h-1.6c1,18.8,2.1,38.5,2.1,54.3v51.8h-17.7v-119.4Z"/>
            <path class="cls-1" d="M836.8,195.5v-65.7h18.4v63.6c0,8.2,1.9,12,6.6,12s7.1-2.4,9-7.7v-67.8h18.4v86.8h-15.5l-1.2-11.9h-1.3c-2.7,9.6-7.8,13.6-16.7,13.6s-17.8-7.3-17.8-22.9Z"/>
            <path class="cls-1" d="M898.4,191.2l15.4-.3c-.6,9.5,2.9,15.4,9.3,15.4s8.4-3.5,8.4-8.9-5.9-10.8-15.4-18.1c-11.4-8.6-17.8-14.5-17.8-28.4s8-22.6,24.6-22.6,24.5,8.4,23.4,28.9l-15.3.7c-.2-12.9-2.2-17.1-8.4-17.1s-8.4,2.9-8.4,8.4,4.2,11.1,10.7,15.8c15.6,11.5,22.5,16.6,22.5,30.7s-8.5,23-25.3,23-26.1-9.2-23.7-27.5Z"/>
            <path class="cls-1" d="M955.5,108.6c0-8.4,2.6-11.3,10-11.3s9.9,3,9.9,11.3-2.5,11.6-9.9,11.6-10-3.1-10-11.6ZM956.5,129.9h17.9v86.8h-17.9v-86.8Z"/>
            <path class="cls-1" d="M985.3,179.3v-12.4c0-28.2,7.3-38.7,26.5-38.7s13.8,1.8,17.5,5.5c5,5,6.8,13.7,5.8,27.2l-15.9,1c0-16.5-1.8-21.7-7.6-21.7s-7.8,5.1-7.8,24.1v17.1c0,19.7,1.4,24.6,7.6,24.6s8.3-5,8.4-20.5l16,.8c.4,13.4-1.9,21.7-7.1,26.6-3.7,3.6-9.3,5.3-17.5,5.3-19.4,0-25.8-9.5-25.8-38.9Z"/>
          </g>
          <g>
            <g>
              <path class="cls-1" d="M312.8,216.8v-37.2l-22.6-82.4h18.3l8.1,36.3c1.9,8.9,4,21.8,4.8,25.6h1.3c1-4.8,2.9-17,4.8-25.5l8.4-36.4h18.3l-22.9,82.4v37.2h-18.4Z"/>
              <path class="cls-1" d="M402.7,169.8v7.1c0,31.1-6.7,41.3-26.8,41.3s-26.8-9.9-26.8-41.3v-7.1c0-30.7,7.3-41.6,27.2-41.6s26.4,10.7,26.4,41.6ZM384,163c0-17.4-1.7-22.6-7.9-22.6s-8.2,5.3-8.2,22.6v20.3c0,17.5,1.7,22.8,7.9,22.8s8.2-5,8.2-22.8v-20.3Z"/>
              <path class="cls-1" d="M412.5,195.5v-65.7h18.4v63.6c0,8.2,1.9,12,6.6,12s7.1-2.4,9-7.7v-67.8h18.4v86.8h-15.5l-1.2-11.9h-1.3c-2.7,9.6-7.8,13.6-16.7,13.6s-17.8-7.3-17.8-22.9Z"/>
              <path class="cls-1" d="M480.3,216.7v-103.8h-19.7v-15.6h57.7v15.6h-19.7v103.8h-18.4Z"/>
              <path class="cls-1" d="M514.4,195.5v-65.7h18.4v63.6c0,8.2,1.9,12,6.6,12s7.1-2.4,9-7.7v-67.8h18.4v86.8h-15.5l-1.2-11.9h-1.3c-2.7,9.6-7.8,13.6-16.7,13.6s-17.8-7.3-17.8-22.9Z"/>
              <path class="cls-1" d="M633,166.4v11.8c0,27.9-5.7,39.7-18.7,39.7s-13.9-3.5-17-9.6h-1.2l-1.3,8.4h-15.9v-123.9h17.7v24.6c0,6.6.1,13.2-.5,21.9h1.4c3.8-7.6,9.6-11.2,17.5-11.2,13.2,0,17.9,9.8,17.9,38.3ZM614.1,166.4c0-20.1-1.7-25.6-8-25.6s-8.1,4-9.5,10.3v49c1.7,3.5,4.8,5.4,8.6,5.4,6.6,0,8.9-6.8,8.9-26.2v-12.8Z"/>
            </g>
            <path class="cls-1" d="M693.3,178.9h-32.9v5.5c0,15.6.4,21.6,7.5,21.6s8.4-4,8.6-15l16.1.8c.9,17.3-7.6,26.3-24.8,26.3s-25.8-10.7-25.8-37v-15.4c0-26.8,7.6-37.4,26.4-37.4s24.9,8.8,24.9,36.6v14ZM660.4,161.8v7.4h14.5v-7.4c0-16.3-.7-21.6-7.3-21.6s-7.2,5.4-7.2,21.6Z"/>
          </g>
        </g>
        <g>
          <path class="cls-2" d="M185.9,243.9c48.3,0,87.4-39.1,87.4-87.4s-39.1-87.4-87.4-87.4-87.4,39.1-87.4,87.4,39.1,87.4,87.4,87.4Z"/>
          <path class="cls-1" d="M185.9,110.4c25.4,0,46,20.7,46,46s-20.7,46-46,46-46-20.7-46-46,20.7-46,46-46ZM185.9,103.3c-29.3,0-53.1,23.8-53.1,53.1s23.8,53.1,53.1,53.1,53.1-23.8,53.1-53.1-23.8-53.1-53.1-53.1Z"/>
          <path class="cls-1" d="M169.1,182.3l44.7-25.8-44.7-25.8v51.7Z"/>
        </g>
      </g>
    </g>
  </g>
</svg>