
<svg width="431" height="431" viewBox="0 0 431 431" fill="none" xmlns="http://www.w3.org/2000/svg">
<rect width="431" height="431" rx="215.5" fill="#161616"/>
<path d="M200.006 174.045V203.449H120.862V174.045H200.006ZM137.442 143.989H177.382V260.05C177.382 262.501 177.763 264.488 178.525 266.013C179.342 267.483 180.513 268.545 182.037 269.198C183.562 269.797 185.386 270.097 187.51 270.097C189.034 270.097 190.64 269.96 192.328 269.688C194.071 269.362 195.378 269.089 196.249 268.871L202.293 297.703C200.387 298.248 197.692 298.928 194.207 299.745C190.777 300.562 186.666 301.079 181.874 301.297C172.508 301.732 164.477 300.643 157.779 298.03C151.136 295.362 146.045 291.223 142.506 285.615C139.021 280.007 137.333 272.955 137.442 264.461V143.989ZM216.18 299.5V132.227H256.609V266.666H326.197V299.5H216.18Z" fill="#F8AD4F"/>
</svg>
